HIERARCHY
ROOT hip
{
	OFFSET 0.000000 0.000000 0.000000
	CHANNELS 6 Xposition Yposition Zposition Xrotation Zrotation Yrotation 
	JOINT abdomen
	{
		OFFSET 0.000000 3.422050 0.000000
		CHANNELS 3 Xrotation Zrotation Yrotation 
		JOINT chest
		{
			OFFSET 0.000000 8.486693 -0.684411
			CHANNELS 3 Xrotation Zrotation Yrotation 
			JOINT neck
			{
				OFFSET 0.000000 10.266162 -0.273764
				CHANNELS 3 Xrotation Zrotation Yrotation 
				JOINT head
				{
					OFFSET 0.000000 3.148285 0.000000
					CHANNELS 3 Xrotation Zrotation Yrotation 
					End Site
					{
						OFFSET 0.000000 3.148289 0.000000
					}
				}
			}
			JOINT lCollar
			{
				OFFSET 3.422053 6.707223 -0.821293
				CHANNELS 3 Yrotation Zrotation Xrotation 
				JOINT lShldr
				{
					OFFSET 3.285171 0.000000 0.000000
					CHANNELS 3 Zrotation Yrotation Xrotation 
					JOINT lForeArm
					{
						OFFSET 10.129278 0.000000 0.000000
						CHANNELS 3 Yrotation Zrotation Xrotation 
						JOINT lHand
						{
							OFFSET 8.486692 0.000000 0.000000
							CHANNELS 3 Zrotation Yrotation Xrotation 
							End Site
							{
								OFFSET 4.106464 0.000000 0.000000
							}
						}
					}
				}
			}
			JOINT rCollar
			{
				OFFSET -3.558935 6.707223 -0.821293
				CHANNELS 3 Yrotation Zrotation Xrotation 
				JOINT rShldr
				{
					OFFSET -3.148289 0.000000 0.000000
					CHANNELS 3 Zrotation Yrotation Xrotation 
					JOINT rForeArm
					{
						OFFSET -10.266159 0.000000 0.000000
						CHANNELS 3 Yrotation Zrotation Xrotation 
						JOINT rHand
						{
							OFFSET -8.349810 0.000000 0.000000
							CHANNELS 3 Zrotation Yrotation Xrotation 
							End Site
							{
								OFFSET -4.106464 0.000000 0.000000
							}
						}
					}
				}
			}
		}
	}
	JOINT lThigh
	{
		OFFSET 5.338403 -1.642589 1.368821
		CHANNELS 3 Xrotation Zrotation Yrotation 
		JOINT lShin
		{
			OFFSET -2.053232 -20.121670 0.000000
			CHANNELS 3 Xrotation Zrotation Yrotation 
			JOINT lFoot
			{
				OFFSET 0.000000 -19.300380 -1.231939
				CHANNELS 3 Xrotation Yrotation Zrotation 
				End Site
				{
					OFFSET 0.000000 -2.463878 4.653993
				}
			}
		}
	}
	JOINT rThigh
	{
		OFFSET -5.338403 -1.642589 1.368821
		CHANNELS 3 Xrotation Zrotation Yrotation 
		JOINT rShin
		{
			OFFSET 2.053232 -20.121670 0.000000
			CHANNELS 3 Xrotation Zrotation Yrotation 
			JOINT rFoot
			{
				OFFSET 0.000000 -19.300380 -1.231939
				CHANNELS 3 Xrotation Yrotation Zrotation 
				End Site
				{
					OFFSET 0.000000 -2.463878 4.653993
				}
			}
		}
	}
}
MOTION
Frames: 13
Frame Time: 0.022176
0.000000 43.528500 0.000000 0.000000 0.000000 0.000000 0.000000 0.000000 0.000000 0.000000 0.000000 0.000000 0.000000 0.000000 0.000000 0.000000 0.000000 0.000000 0.000000 0.000000 0.000000 0.000000 0.000000 0.000000 0.000000 0.000000 0.000000 0.000000 0.000000 0.000000 0.000000 0.000000 0.000000 0.000000 0.000000 0.000000 0.000000 0.000000 0.000000 0.000000 0.000000 0.000000 0.000000 0.000000 0.000000 0.000000 0.000000 0.000000 0.000000 0.000000 0.000000 0.000000 0.000000 0.000000 0.000000 0.000000 0.000000 0.000000 0.000000 0.000000 
-0.309380 40.185352 -0.171211 8.998567 0.000000 0.000000 17.516869 -0.929063 -0.343058 -24.348854 -2.188857 -1.082486 0.148625 0.110157 0.000143 0.176601 0.000000 0.000000 -3.420393 2.665796 10.545757 -52.602676 -14.816518 -1.320061 -79.603996 -33.405468 -11.178378 -8.250601 9.305690 1.436353 2.940828 -3.108673 10.166281 52.306736 14.940424 -1.441676 78.521294 33.122120 -10.640203 9.911036 -8.377785 1.576025 -37.318817 20.544407 15.823481 119.998215 25.146204 2.162074 27.841326 -21.348898 -11.264250 -39.905045 -22.855671 -14.255972 119.598320 -25.182705 -2.010103 26.425293 22.394005 13.378236 
-0.309380 40.185352 0.010014 7.837387 0.000000 0.000000 16.740686 -0.929037 -0.343172 -21.644798 -2.188801 -1.082631 0.194710 0.144696 -0.002851 0.231433 0.000000 0.000000 -3.646757 2.851320 9.722392 -52.602676 -14.816518 -1.320061 -79.027428 -33.312809 -10.874507 -8.255814 9.031433 1.170893 3.190805 -3.276324 9.354670 52.306744 14.940426 -1.441676 77.978073 33.032543 -10.355385 9.863479 -8.137028 1.315859 -35.513615 21.066854 16.174053 119.460297 25.221106 1.928373 27.845615 -21.354992 -10.797370 -38.111511 -23.436390 -14.639277 119.082985 -25.254128 -1.785034 26.435499 22.420517 12.864567 
-0.309380 40.185352 0.191239 6.674284 0.000000 0.000000 15.963931 -0.929014 -0.343287 -18.915358 -2.188737 -1.082773 0.240796 0.179239 -0.005817 0.286268 0.000000 0.000000 -3.870678 3.040253 8.898841 -52.602680 -14.816520 -1.320062 -78.451881 -33.217575 -10.572000 -8.259738 8.757106 0.905611 3.438652 -3.447654 8.542889 52.306736 14.940424 -1.441676 77.435799 32.940689 -10.071807 9.814835 -7.896447 1.055603 -33.691360 21.580713 16.544907 118.921532 25.294033 1.693693 27.849968 -21.361057 -10.330350 -36.298706 -24.007969 -15.045618 118.566933 -25.323746 -1.559074 26.445957 22.446939 12.350623 
-0.309380 40.185352 0.372464 5.509488 0.000000 0.000000 15.186673 -0.928991 -0.343402 -16.163311 -2.188665 -1.082914 0.286883 0.213787 -0.008756 0.341105 0.000000 0.000000 -4.092081 3.232543 8.075194 -52.602680 -14.816518 -1.320061 -77.877441 -33.119778 -10.270908 -8.262375 8.482722 0.640498 3.684292 -3.622618 7.731036 52.306744 14.940426 -1.441676 76.894539 32.846569 -9.789513 9.765112 -7.656054 0.795253 -31.852625 22.085033 16.935913 118.381989 25.364977 1.458064 27.854370 -21.367090 -9.863202 -34.467064 -24.569365 -15.474963 118.050133 -25.391527 -1.332242 26.456688 22.473293 11.836444 
-0.309380 40.185352 0.553689 4.343241 0.000000 0.000000 14.408984 -0.928970 -0.343517 -13.391596 -2.188586 -1.083052 0.332970 0.248339 -0.011667 0.395945 0.000000 0.000000 -4.310892 3.428130 7.251545 -52.602676 -14.816518 -1.320060 -77.304153 -33.019455 -9.971277 -8.263727 8.208293 0.375549 3.927643 -3.801165 6.919203 52.306736 14.940424 -1.441676 76.354286 32.750191 -9.508531 9.714311 -7.415861 0.534807 -29.998045 22.578880 17.346910 117.841690 25.433933 1.221514 27.858829 -21.373093 -9.395945 -32.617096 -25.119526 -15.927206 117.532654 -25.457466 -1.104574 26.467667 22.499552 11.322030 
-0.309380 40.185352 0.734914 3.175781 0.000000 0.000000 13.630939 -0.928951 -0.343633 -10.603273 -2.188501 -1.083187 0.379058 0.282894 -0.014550 0.450788 0.000000 0.000000 -4.527039 3.626958 6.427982 -52.602673 -14.816518 -1.320061 -76.732040 -32.916584 -9.673142 -8.263798 7.933831 0.110758 4.168628 -3.983243 6.107485 52.306736 14.940424 -1.441676 75.815125 32.651581 -9.228902 9.662429 -7.175873 0.274259 -28.128298 23.061321 17.777639 117.300697 25.500881 0.984080 27.863337 -21.379059 -8.928586 -30.749390 -25.657419 -16.402159 117.014526 -25.521566 -0.876091 26.478914 22.525734 10.807415 
-0.309380 40.185352 0.916139 2.007349 0.000000 0.000000 12.852609 -0.928933 -0.343749 -7.801517 -2.188408 -1.083319 0.425147 0.317454 -0.017406 0.505633 0.000000 0.000000 -4.740449 3.828962 5.604595 -52.602676 -14.816518 -1.320061 -76.161163 -32.811226 -9.376550 -8.262589 7.659344 -0.153883 4.407170 -4.168795 5.295972 52.306736 14.940424 -1.441676 75.277061 32.550751 -8.950665 9.609472 -6.936104 0.013607 -26.244146 23.531452 18.227776 116.759010 25.565807 0.745788 27.867903 -21.384995 -8.461146 -28.864588 -26.182013 -16.899536 116.495773 -25.583799 -0.646822 26.490412 22.551819 10.292614 
-0.309380 40.185352 1.097364 0.838187 0.000000 0.000000 12.074057 -0.928916 -0.343865 -4.989602 -2.188309 -1.083446 0.471237 0.352018 -0.020234 0.560480 0.000000 0.000000 -4.951056 4.034079 4.781470 -52.602680 -14.816520 -1.320062 -75.591553 -32.703377 -9.081543 -8.260103 7.384852 -0.418380 4.643194 -4.357766 4.484754 52.306736 14.940424 -1.441677 74.740135 32.447720 -8.673849 9.555442 -6.696561 -0.247153 -24.346413 23.988373 18.696909 116.216667 25.628698 0.506672 27.872520 -21.390896 -7.993644 -26.963451 -26.692310 -17.418987 115.976433 -25.644161 -0.416799 26.502165 22.577806 9.777645 
-0.309380 40.185352 1.278589 -0.331463 0.000000 0.000000 11.295364 -0.928902 -0.343982 -2.170875 -2.188203 -1.083568 0.517327 0.386586 -0.023034 0.615330 0.000000 0.000000 -5.158790 4.242242 3.958695 -52.602676 -14.816518 -1.320061 -75.023293 -32.593067 -8.788166 -8.256340 7.110359 -0.682739 4.876626 -4.550094 3.673922 52.306736 14.940424 -1.441676 74.204407 32.342495 -8.398490 9.500338 -6.457256 -0.508026 -22.435991 24.431225 19.184566 115.673737 25.689564 0.266764 27.877188 -21.396761 -7.526089 -25.046778 -27.187317 -17.960051 115.456535 -25.702646 -0.186047 26.514179 22.603704 9.262536 
-0.309380 40.185352 1.459813 -1.501357 0.000000 0.000000 10.516600 -0.928889 -0.344099 0.651274 -2.188091 -1.083685 0.563419 0.421158 -0.025807 0.670183 0.000000 0.000000 -5.363586 4.453382 3.136353 -52.602676 -14.816518 -1.320061 -74.456367 -32.480305 -8.496452 -8.251303 6.835880 -0.946968 5.107396 -4.745719 2.863563 52.306736 14.940424 -1.441676 73.669876 32.235104 -8.124616 9.444161 -6.218196 -0.769015 -20.513840 24.859171 19.690182 115.130234 25.748369 0.026098 27.881905 -21.402590 -7.058499 -23.115480 -27.666098 -18.522177 114.936104 -25.759237 0.045404 26.526449 22.629501 8.747305 
-0.309380 40.185352 1.641038 -2.671251 0.000000 0.000000 9.737834 -0.928877 -0.344216 3.473423 -2.187974 -1.083797 0.609511 0.455734 -0.028552 0.725038 0.000000 0.000000 -5.565382 4.667433 2.314532 -52.602676 -14.816518 -1.320061 -73.890846 -32.365116 -8.206440 -8.244996 6.561429 -1.211073 5.335433 -4.944577 2.053765 52.306728 14.940423 -1.441675 73.136589 32.125553 -7.852264 9.386917 -5.979396 -1.030123 -18.580982 25.271418 20.213125 114.586182 25.805117 -0.215296 27.886681 -21.408386 -6.590891 -21.170546 -28.127729 -19.104727 114.415192 -25.813936 0.277524 26.538977 22.655203 8.231971 
-0.309380 40.185352 1.822263 -3.840900 0.000000 0.000000 8.959140 -0.928867 -0.344333 6.292148 -2.187851 -1.083902 0.655604 0.490313 -0.031269 0.779895 0.000000 0.000000 -5.764115 4.884318 1.493312 -52.602676 -14.816518 -1.320061 -73.326752 -32.247524 -7.918167 -8.237421 6.287015 -1.475060 5.560668 -5.146599 1.244614 52.306736 14.940424 -1.441676 72.604584 32.013863 -7.581463 9.328605 -5.740861 -1.291353 -16.638521 25.667213 20.752674 114.041618 25.859785 -0.457383 27.891502 -21.414145 -6.123281 -19.213032 -28.571339 -19.706961 113.893806 -25.866730 0.510287 26.551739 22.680784 7.716552 
